<svg id="svg" version="1.1" width="2400" height="670" xmlns="http://www.w3.org/2000/svg" xmlns:xlink="http://www.w3.org/1999/xlink" style="display: block;"><g id="svgg"><path id="path0" d="M83.250 35.668 C 72.342 35.715,63.398 35.771,63.375 35.793 C 63.352 35.815,63.333 40.633,63.333 46.500 L 63.333 57.167 67.833 57.167 L 72.333 57.167 72.333 53.333 L 72.333 49.500 75.583 49.500 L 78.833 49.500 78.833 46.833 L 78.833 44.167 79.583 44.167 L 80.333 44.167 80.333 50.667 L 80.333 57.167 88.911 57.167 L 97.488 57.167 97.536 55.556 L 97.583 53.946 98.208 54.553 C 98.552 54.887,98.833 55.232,98.833 55.318 C 98.833 55.404,99.210 55.856,99.670 56.321 L 100.507 57.167 105.754 57.167 L 111.000 57.167 111.000 53.000 L 111.000 48.833 108.922 48.833 C 107.143 48.833,106.858 48.797,106.940 48.583 C 106.992 48.446,107.161 48.333,107.314 48.333 C 107.599 48.333,108.167 47.785,108.167 47.510 C 108.167 47.426,108.260 47.255,108.375 47.130 C 108.813 46.654,109.009 46.128,109.110 45.164 L 109.214 44.167 111.190 44.167 L 113.167 44.167 113.167 50.667 L 113.167 57.167 117.750 57.167 L 122.333 57.167 122.333 50.667 L 122.333 44.167 123.917 44.167 L 125.500 44.167 125.500 50.667 L 125.500 57.167 130.000 57.167 L 134.500 57.167 134.500 53.833 L 134.500 50.500 135.583 50.500 L 136.667 50.500 136.667 53.833 L 136.667 57.167 148.833 57.167 C 155.777 57.167,161.000 57.103,161.000 57.019 C 161.000 56.938,161.412 56.820,161.917 56.757 C 162.421 56.694,162.833 56.573,162.833 56.488 C 162.833 56.403,162.921 56.333,163.029 56.333 C 163.136 56.333,163.361 56.209,163.529 56.058 C 163.819 55.794,163.833 55.814,163.833 56.474 L 163.833 57.167 168.671 57.167 L 173.508 57.167 173.608 56.667 C 173.663 56.392,173.774 56.167,173.854 56.167 C 173.934 56.167,174.002 55.998,174.005 55.792 C 174.008 55.585,174.121 55.271,174.255 55.093 C 174.390 54.915,174.500 54.596,174.500 54.385 C 174.500 54.011,174.545 54.000,175.992 54.000 L 177.485 54.000 177.595 54.585 C 177.655 54.907,177.771 55.211,177.852 55.262 C 177.934 55.312,178.000 55.536,178.000 55.760 C 178.000 55.984,178.066 56.167,178.146 56.167 C 178.226 56.167,178.337 56.392,178.392 56.667 L 178.492 57.167 183.579 57.167 L 188.667 57.167 188.667 55.833 C 188.667 55.100,188.599 54.500,188.516 54.500 C 188.433 54.500,188.313 54.125,188.250 53.667 C 188.187 53.208,188.072 52.833,187.995 52.833 C 187.917 52.833,187.803 52.496,187.741 52.083 C 187.679 51.671,187.562 51.333,187.481 51.333 C 187.400 51.333,187.333 51.146,187.333 50.917 C 187.333 50.688,187.267 50.500,187.186 50.500 C 187.104 50.500,186.987 50.164,186.926 49.754 C 186.864 49.344,186.748 48.967,186.667 48.917 C 186.586 48.867,186.469 48.490,186.407 48.079 C 186.346 47.669,186.229 47.333,186.148 47.333 C 186.066 47.333,186.000 47.146,186.000 46.917 C 186.000 46.688,185.934 46.500,185.852 46.500 C 185.771 46.500,185.654 46.164,185.593 45.754 C 185.531 45.344,185.414 44.967,185.333 44.917 C 185.252 44.867,185.136 44.490,185.074 44.079 C 185.013 43.669,184.896 43.333,184.814 43.333 C 184.733 43.333,184.667 43.146,184.667 42.917 C 184.667 42.688,184.601 42.500,184.521 42.500 C 184.441 42.500,184.326 42.185,184.264 41.800 C 184.202 41.415,184.091 41.021,184.017 40.925 C 183.943 40.829,183.802 40.424,183.704 40.025 C 183.509 39.229,183.977 39.472,184.241 40.304 C 184.304 40.504,184.426 40.667,184.511 40.667 C 184.597 40.667,184.667 40.779,184.667 40.917 C 184.667 41.054,184.740 41.167,184.830 41.167 C 184.920 41.167,185.041 41.354,185.098 41.583 C 185.156 41.813,185.272 42.000,185.356 42.000 C 185.440 42.000,185.580 42.189,185.668 42.421 C 185.756 42.652,185.942 42.885,186.081 42.939 C 186.220 42.992,186.333 43.125,186.333 43.234 C 186.333 43.451,186.710 43.994,187.292 44.615 C 187.498 44.835,187.667 45.121,187.667 45.249 C 187.667 45.378,187.760 45.543,187.875 45.617 C 188.087 45.752,188.412 46.214,188.614 46.667 C 188.675 46.804,188.900 47.082,189.113 47.284 C 189.326 47.486,189.500 47.769,189.500 47.914 C 189.500 48.059,189.612 48.220,189.750 48.273 C 189.887 48.326,190.000 48.473,190.000 48.601 C 190.000 48.729,190.070 48.833,190.155 48.833 C 190.241 48.833,190.363 48.999,190.427 49.201 C 190.492 49.403,190.647 49.670,190.772 49.796 C 190.951 49.975,191.000 50.796,191.000 53.595 L 191.000 57.167 195.574 57.167 L 200.149 57.167 200.199 53.503 C 200.249 49.920,200.258 49.833,200.625 49.577 C 200.831 49.433,201.000 49.223,201.000 49.111 C 201.000 48.999,201.150 48.779,201.333 48.622 C 201.517 48.465,201.667 48.240,201.667 48.122 C 201.667 48.004,201.817 47.799,202.000 47.667 C 202.183 47.535,202.333 47.328,202.333 47.208 C 202.333 47.088,202.446 46.946,202.583 46.894 C 202.721 46.841,202.833 46.653,202.833 46.477 C 202.833 46.301,202.946 46.113,203.083 46.060 C 203.221 46.008,203.333 45.878,203.333 45.772 C 203.333 45.666,203.521 45.378,203.750 45.131 C 203.979 44.883,204.167 44.601,204.167 44.502 C 204.167 44.403,204.279 44.280,204.417 44.227 C 204.554 44.174,204.667 43.989,204.667 43.816 C 204.667 43.642,204.744 43.500,204.837 43.500 C 204.931 43.500,205.081 43.331,205.170 43.125 C 205.399 42.596,205.706 42.130,206.018 41.836 C 206.165 41.697,206.337 41.422,206.399 41.224 C 206.462 41.026,206.622 40.822,206.756 40.771 C 206.890 40.719,207.000 40.579,207.000 40.459 C 207.000 40.339,207.150 40.132,207.333 40.000 C 207.517 39.868,207.667 39.669,207.667 39.558 C 207.667 39.448,207.798 39.226,207.958 39.066 C 208.193 38.831,208.250 38.481,208.250 37.262 L 208.250 35.750 203.320 35.706 L 198.391 35.662 197.945 36.045 C 197.700 36.255,197.500 36.548,197.500 36.696 C 197.500 36.843,197.387 37.008,197.250 37.060 C 197.112 37.113,197.000 37.271,197.000 37.411 C 197.000 37.552,196.937 37.667,196.860 37.667 C 196.782 37.667,196.578 37.929,196.405 38.250 C 196.232 38.571,196.033 38.833,195.962 38.833 C 195.891 38.833,195.833 38.949,195.833 39.091 C 195.833 39.412,195.014 38.880,195.005 38.554 C 195.002 38.446,194.906 38.255,194.792 38.130 C 194.546 37.862,194.211 37.352,194.050 37.000 C 193.987 36.862,193.837 36.651,193.718 36.530 C 193.598 36.409,193.500 36.210,193.500 36.089 C 193.500 35.707,193.109 35.676,188.040 35.661 L 183.083 35.646 182.987 36.698 C 182.934 37.277,182.878 37.581,182.862 37.375 C 182.846 37.169,182.773 37.000,182.699 37.000 C 182.625 37.000,182.493 36.695,182.407 36.322 L 182.250 35.644 176.378 35.659 C 169.399 35.677,169.852 35.562,169.553 37.404 C 169.500 37.732,169.401 38.000,169.333 38.000 C 169.265 38.000,169.161 38.303,169.102 38.674 C 169.042 39.045,168.920 39.495,168.830 39.674 C 168.740 39.853,168.593 40.147,168.503 40.326 C 168.413 40.505,168.291 40.955,168.232 41.326 C 168.173 41.697,168.059 42.000,167.979 42.000 C 167.899 42.000,167.833 42.197,167.833 42.437 C 167.833 42.807,167.795 42.842,167.583 42.667 C 167.446 42.553,167.333 42.243,167.333 41.980 C 167.333 41.716,167.258 41.500,167.167 41.500 C 167.075 41.500,167.000 41.318,167.000 41.095 C 167.000 40.873,166.897 40.588,166.772 40.462 C 166.647 40.337,166.496 40.082,166.437 39.897 C 166.378 39.711,166.199 39.410,166.040 39.229 C 165.880 39.047,165.670 38.758,165.572 38.585 C 165.474 38.413,165.250 38.192,165.073 38.094 C 164.897 37.997,164.600 37.762,164.414 37.574 C 164.228 37.385,163.721 37.085,163.288 36.907 C 162.855 36.729,162.501 36.534,162.501 36.474 C 162.500 36.414,162.106 36.311,161.625 36.245 C 161.144 36.180,160.697 36.042,160.631 35.938 C 160.504 35.738,137.826 35.549,137.057 35.742 L 136.667 35.840 136.667 39.003 L 136.667 42.167 135.583 42.167 L 134.500 42.167 134.500 38.919 L 134.500 35.671 120.988 35.627 C 106.047 35.579,107.081 35.503,106.971 36.657 C 106.920 37.194,106.899 37.212,106.637 36.948 C 106.483 36.793,106.277 36.667,106.179 36.667 C 106.080 36.667,106.000 36.593,106.000 36.502 C 106.000 36.411,105.700 36.289,105.333 36.231 C 104.967 36.172,104.667 36.059,104.667 35.979 C 104.667 35.899,104.382 35.833,104.033 35.833 C 103.685 35.833,103.329 35.777,103.242 35.708 C 103.155 35.640,94.158 35.622,83.250 35.668 M80.667 39.833 L 80.667 42.500 75.750 42.500 L 70.833 42.500 70.833 43.667 L 70.833 44.833 74.000 44.833 L 77.167 44.833 77.167 46.333 L 77.167 47.833 74.000 47.833 L 70.833 47.833 70.833 51.833 L 70.833 55.833 68.000 55.833 L 65.167 55.833 65.167 46.500 L 65.167 37.167 72.917 37.167 L 80.667 37.167 80.667 39.833 M87.833 46.500 L 87.833 55.833 85.083 55.833 L 82.333 55.833 82.333 46.500 L 82.333 37.167 85.083 37.167 L 87.833 37.167 87.833 46.500 M101.667 37.310 C 101.667 37.388,102.135 37.501,102.708 37.561 C 103.281 37.621,103.774 37.742,103.804 37.830 C 103.833 37.918,104.115 38.038,104.429 38.097 C 104.743 38.156,105.000 38.270,105.000 38.352 C 105.000 38.433,105.070 38.500,105.155 38.500 C 105.420 38.500,106.500 39.609,106.500 39.881 C 106.500 40.023,106.556 40.164,106.625 40.194 C 107.211 40.455,107.702 44.586,107.185 44.905 C 107.104 44.956,106.989 45.189,106.930 45.423 C 106.810 45.900,105.757 47.000,105.420 47.000 C 105.300 47.000,105.159 47.112,105.106 47.250 C 105.054 47.387,104.821 47.500,104.589 47.500 C 104.357 47.500,104.167 47.575,104.167 47.667 C 104.167 47.758,104.054 47.833,103.917 47.833 C 103.779 47.833,103.667 47.908,103.667 48.000 C 103.667 48.092,103.404 48.167,103.083 48.167 C 102.344 48.167,102.258 48.821,102.917 49.431 C 103.146 49.644,103.333 49.864,103.333 49.921 C 103.333 50.398,103.889 50.500,106.488 50.500 L 109.167 50.500 109.167 53.167 L 109.167 55.833 105.775 55.833 L 102.383 55.833 100.025 53.484 C 98.728 52.192,97.667 51.072,97.667 50.996 C 97.667 50.695,96.523 49.667,96.189 49.667 C 95.839 49.667,95.833 49.714,95.833 52.750 L 95.833 55.833 92.667 55.833 L 89.500 55.833 89.500 46.500 L 89.500 37.167 95.583 37.167 C 98.929 37.167,101.667 37.231,101.667 37.310 M126.333 39.829 L 126.333 42.492 123.375 42.538 L 120.417 42.583 120.373 49.208 L 120.330 55.833 117.581 55.833 L 114.833 55.833 114.833 49.167 L 114.833 42.500 111.917 42.500 L 109.000 42.500 109.000 39.833 L 109.000 37.167 117.667 37.167 L 126.333 37.167 126.333 39.829 M133.000 40.504 L 133.000 43.842 135.625 43.796 L 138.250 43.750 138.295 40.458 L 138.340 37.167 141.087 37.167 L 143.833 37.167 143.833 46.500 L 143.833 55.833 141.087 55.833 L 138.340 55.833 138.295 52.375 L 138.250 48.917 135.625 48.871 L 133.000 48.825 133.000 52.329 L 133.000 55.833 130.167 55.833 L 127.333 55.833 127.333 46.500 L 127.333 37.167 130.167 37.167 L 133.000 37.167 133.000 40.504 M157.667 37.309 C 157.667 37.387,158.244 37.500,158.949 37.559 C 159.654 37.619,160.273 37.732,160.324 37.810 C 160.375 37.888,160.698 38.004,161.042 38.067 C 161.385 38.130,161.667 38.253,161.667 38.341 C 161.667 38.428,161.817 38.500,162.000 38.500 C 162.183 38.500,162.333 38.577,162.333 38.672 C 162.333 38.766,162.465 38.894,162.625 38.955 C 162.943 39.076,163.237 39.294,163.550 39.637 C 163.660 39.758,163.881 39.981,164.042 40.132 C 164.202 40.284,164.333 40.503,164.333 40.620 C 164.333 40.738,164.408 40.833,164.500 40.833 C 164.592 40.833,164.667 40.983,164.667 41.167 C 164.667 41.350,164.736 41.500,164.820 41.500 C 164.904 41.500,165.023 41.725,165.083 42.000 C 165.144 42.275,165.258 42.500,165.338 42.500 C 165.418 42.500,165.535 42.952,165.597 43.504 C 165.659 44.056,165.776 44.548,165.855 44.597 C 166.044 44.713,166.045 47.833,165.856 47.833 C 165.777 47.833,165.673 48.328,165.624 48.932 C 165.576 49.536,165.453 50.114,165.351 50.215 C 165.250 50.317,165.167 50.497,165.167 50.616 C 165.167 50.938,164.607 52.167,164.461 52.167 C 164.391 52.167,164.333 52.262,164.333 52.380 C 164.333 52.497,164.202 52.719,164.042 52.874 C 163.881 53.029,163.564 53.346,163.337 53.578 C 163.110 53.810,162.826 54.000,162.707 54.000 C 162.587 54.000,162.446 54.112,162.394 54.250 C 162.341 54.387,162.156 54.500,161.982 54.500 C 161.809 54.500,161.667 54.567,161.667 54.649 C 161.667 54.730,161.461 54.849,161.210 54.912 C 160.959 54.975,160.708 55.100,160.653 55.189 C 160.598 55.278,159.866 55.396,159.026 55.450 C 158.187 55.505,157.500 55.613,157.500 55.691 C 157.500 55.769,154.837 55.833,151.583 55.833 L 145.667 55.833 145.667 46.500 L 145.667 37.167 151.667 37.167 C 154.967 37.167,157.667 37.231,157.667 37.309 M180.667 37.583 C 180.667 37.813,180.733 38.000,180.814 38.000 C 180.896 38.000,181.013 38.337,181.075 38.750 C 181.136 39.162,181.249 39.500,181.325 39.500 C 181.400 39.500,181.513 39.836,181.574 40.246 C 181.636 40.656,181.757 41.036,181.843 41.089 C 181.929 41.143,182.000 41.369,182.000 41.593 C 182.000 41.817,182.066 42.000,182.148 42.000 C 182.229 42.000,182.346 42.337,182.408 42.750 C 182.470 43.163,182.582 43.500,182.658 43.500 C 182.734 43.500,182.846 43.836,182.907 44.246 C 182.969 44.656,183.090 45.036,183.176 45.089 C 183.263 45.143,183.333 45.369,183.333 45.593 C 183.333 45.817,183.400 46.000,183.481 46.000 C 183.562 46.000,183.679 46.337,183.741 46.750 C 183.803 47.163,183.918 47.500,183.996 47.500 C 184.074 47.500,184.188 47.800,184.250 48.167 C 184.312 48.533,184.431 48.833,184.515 48.833 C 184.598 48.833,184.667 49.021,184.667 49.250 C 184.667 49.479,184.735 49.667,184.818 49.667 C 184.901 49.667,185.020 50.042,185.083 50.500 C 185.146 50.958,185.257 51.333,185.330 51.333 C 185.403 51.333,185.513 51.671,185.575 52.083 C 185.636 52.496,185.757 52.833,185.844 52.833 C 185.930 52.833,186.000 53.021,186.000 53.250 C 186.000 53.479,186.068 53.667,186.151 53.667 C 186.234 53.667,186.354 54.042,186.417 54.500 C 186.480 54.958,186.599 55.333,186.682 55.333 C 186.765 55.333,186.833 55.446,186.833 55.583 C 186.833 55.797,186.352 55.833,183.500 55.833 L 180.167 55.833 180.167 55.417 C 180.167 55.188,180.092 55.000,180.000 55.000 C 179.908 55.000,179.833 54.843,179.833 54.651 C 179.833 54.459,179.726 54.102,179.595 53.859 C 179.464 53.616,179.258 53.173,179.138 52.875 L 178.919 52.333 176.000 52.333 L 173.081 52.333 172.863 52.875 C 172.743 53.173,172.576 53.545,172.492 53.701 C 172.408 53.857,172.291 54.289,172.232 54.659 C 172.173 55.030,172.059 55.333,171.979 55.333 C 171.899 55.333,171.833 55.446,171.833 55.583 C 171.833 55.797,171.380 55.833,168.750 55.833 L 165.667 55.833 165.667 55.417 C 165.667 55.188,165.742 55.000,165.833 55.000 C 165.925 55.000,166.000 54.813,166.000 54.583 C 166.000 54.354,166.070 54.167,166.156 54.167 C 166.243 54.167,166.364 53.829,166.425 53.417 C 166.487 53.004,166.597 52.667,166.670 52.667 C 166.743 52.667,166.854 52.292,166.917 51.833 C 166.980 51.375,167.099 51.000,167.182 51.000 C 167.265 51.000,167.333 50.819,167.333 50.597 C 167.333 50.376,167.410 50.169,167.503 50.138 C 167.596 50.107,167.719 49.688,167.776 49.207 C 167.833 48.727,167.936 48.333,168.004 48.333 C 168.073 48.333,168.179 47.996,168.241 47.583 C 168.303 47.171,168.424 46.833,168.510 46.833 C 168.596 46.833,168.667 46.650,168.667 46.427 C 168.667 46.203,168.737 45.976,168.824 45.923 C 168.910 45.869,169.031 45.490,169.093 45.079 C 169.154 44.669,169.262 44.333,169.333 44.333 C 169.404 44.333,169.513 43.996,169.575 43.583 C 169.636 43.171,169.757 42.833,169.844 42.833 C 169.930 42.833,170.000 42.650,170.000 42.427 C 170.000 42.203,170.071 41.976,170.157 41.923 C 170.243 41.869,170.364 41.490,170.426 41.079 C 170.487 40.669,170.596 40.333,170.667 40.333 C 170.738 40.333,170.846 39.996,170.908 39.583 C 170.970 39.171,171.091 38.833,171.177 38.833 C 171.263 38.833,171.333 38.646,171.333 38.417 C 171.333 38.188,171.408 38.000,171.500 38.000 C 171.592 38.000,171.667 37.813,171.667 37.583 L 171.667 37.167 176.167 37.167 L 180.667 37.167 180.667 37.583 M191.762 37.571 C 191.818 37.794,191.969 38.016,192.098 38.066 C 192.228 38.116,192.333 38.304,192.333 38.484 C 192.333 38.664,192.482 38.858,192.667 38.917 C 192.850 38.975,193.000 39.125,193.000 39.249 C 193.000 39.374,193.103 39.579,193.228 39.704 C 193.353 39.830,193.508 40.097,193.573 40.299 C 193.637 40.501,193.759 40.667,193.845 40.667 C 193.930 40.667,194.000 40.779,194.000 40.917 C 194.000 41.054,194.074 41.167,194.163 41.167 C 194.253 41.167,194.374 41.354,194.432 41.583 C 194.489 41.813,194.605 42.000,194.689 42.000 C 194.773 42.000,194.915 42.192,195.004 42.428 C 195.202 42.948,195.943 42.943,196.233 42.419 C 196.334 42.237,196.537 41.974,196.684 41.836 C 196.832 41.697,197.006 41.415,197.071 41.208 C 197.136 41.002,197.259 40.833,197.345 40.833 C 197.430 40.833,197.500 40.718,197.500 40.578 C 197.500 40.438,197.612 40.280,197.750 40.227 C 197.887 40.174,198.000 39.997,198.000 39.833 C 198.000 39.670,198.112 39.492,198.250 39.440 C 198.387 39.387,198.500 39.229,198.500 39.089 C 198.500 38.948,198.570 38.833,198.655 38.833 C 198.741 38.833,198.864 38.665,198.929 38.458 C 198.994 38.252,199.187 37.962,199.357 37.814 C 199.527 37.666,199.667 37.459,199.667 37.355 C 199.667 37.221,200.650 37.167,203.083 37.167 C 206.262 37.167,207.095 37.282,206.250 37.606 C 206.112 37.659,206.000 37.836,206.000 38.000 C 206.000 38.164,205.887 38.341,205.750 38.394 C 205.612 38.446,205.500 38.604,205.500 38.745 C 205.500 38.885,205.430 39.000,205.345 39.000 C 205.259 39.000,205.136 39.169,205.071 39.375 C 205.006 39.581,204.813 39.871,204.643 40.020 C 204.473 40.168,204.333 40.362,204.333 40.452 C 204.333 40.542,204.183 40.751,204.000 40.917 C 203.817 41.083,203.667 41.319,203.667 41.442 C 203.667 41.566,203.603 41.667,203.526 41.667 C 203.449 41.667,203.244 41.929,203.072 42.250 C 202.899 42.571,202.700 42.833,202.629 42.833 C 202.558 42.833,202.500 42.948,202.500 43.089 C 202.500 43.229,202.387 43.387,202.250 43.440 C 202.112 43.492,202.000 43.670,202.000 43.833 C 202.000 43.997,201.887 44.174,201.750 44.227 C 201.612 44.280,201.500 44.420,201.500 44.538 C 201.500 44.657,201.313 44.956,201.083 45.203 C 200.854 45.450,200.667 45.722,200.667 45.808 C 200.667 45.894,200.554 46.008,200.417 46.060 C 200.279 46.113,200.167 46.301,200.167 46.477 C 200.167 46.653,200.054 46.841,199.917 46.894 C 199.779 46.946,199.667 47.100,199.667 47.235 C 199.667 47.370,199.527 47.579,199.357 47.699 C 199.187 47.819,198.995 48.085,198.929 48.292 C 198.864 48.498,198.741 48.667,198.655 48.667 C 198.564 48.667,198.500 50.145,198.500 52.250 L 198.500 55.833 195.750 55.833 L 193.000 55.833 193.000 52.498 C 193.000 49.023,192.962 48.807,192.231 48.094 C 192.038 47.905,191.827 47.581,191.762 47.375 C 191.697 47.169,191.574 47.000,191.489 47.000 C 191.403 47.000,191.333 46.887,191.333 46.750 C 191.333 46.612,191.260 46.500,191.170 46.500 C 191.080 46.500,190.961 46.318,190.905 46.095 C 190.849 45.873,190.698 45.650,190.568 45.601 C 190.439 45.551,190.333 45.409,190.333 45.285 C 190.333 45.161,190.146 44.897,189.917 44.698 C 189.688 44.499,189.500 44.223,189.500 44.084 C 189.500 43.946,189.426 43.833,189.337 43.833 C 189.247 43.833,189.127 43.649,189.070 43.423 C 189.013 43.197,188.824 42.967,188.650 42.911 C 188.476 42.856,188.333 42.709,188.333 42.584 C 188.333 42.459,188.235 42.258,188.116 42.137 C 187.996 42.016,187.846 41.804,187.783 41.667 C 187.578 41.218,187.257 40.759,186.907 40.414 C 186.719 40.228,186.513 39.965,186.450 39.830 C 186.286 39.477,185.950 38.968,185.708 38.703 C 185.594 38.578,185.500 38.369,185.500 38.238 C 185.500 38.107,185.437 38.000,185.360 38.000 C 185.283 38.000,185.135 37.813,185.030 37.583 L 184.840 37.167 188.250 37.167 L 191.660 37.167 191.762 37.571 M151.792 41.593 C 151.723 41.664,151.667 43.885,151.667 46.528 L 151.667 51.333 154.148 51.333 C 156.914 51.333,157.047 51.296,158.148 50.205 C 158.684 49.674,158.888 49.326,158.955 48.830 C 159.004 48.465,159.109 48.167,159.189 48.167 C 159.268 48.167,159.333 47.379,159.333 46.417 C 159.333 45.454,159.268 44.667,159.188 44.667 C 159.108 44.667,158.995 44.367,158.936 44.000 C 158.877 43.633,158.774 43.333,158.706 43.332 C 158.639 43.332,158.458 43.111,158.305 42.843 C 157.747 41.862,152.506 40.856,151.792 41.593 M175.875 41.610 C 175.760 41.657,175.667 41.876,175.667 42.097 C 175.667 42.319,175.592 42.500,175.500 42.500 C 175.408 42.500,175.333 42.612,175.333 42.750 C 175.333 42.887,175.265 43.000,175.182 43.000 C 175.099 43.000,174.980 43.375,174.917 43.833 C 174.854 44.292,174.744 44.667,174.672 44.667 C 174.601 44.667,174.494 44.970,174.435 45.341 C 174.329 46.003,174.047 46.654,173.782 46.849 C 173.708 46.903,173.604 47.372,173.551 47.891 L 173.453 48.833 176.143 48.833 L 178.833 48.833 178.833 48.333 C 178.833 48.058,178.767 47.833,178.686 47.833 C 178.604 47.833,178.487 47.498,178.426 47.087 C 178.364 46.677,178.243 46.297,178.157 46.244 C 178.071 46.191,178.000 46.001,178.000 45.823 C 178.000 45.646,177.932 45.500,177.849 45.500 C 177.766 45.500,177.646 45.125,177.583 44.667 C 177.520 44.208,177.409 43.833,177.337 43.833 C 177.264 43.833,177.154 43.496,177.092 43.083 C 177.030 42.671,176.909 42.333,176.823 42.333 C 176.737 42.333,176.667 42.146,176.667 41.917 C 176.667 41.505,176.395 41.400,175.875 41.610 M95.870 43.542 L 95.917 45.417 98.500 45.463 C 101.899 45.525,102.333 45.332,102.333 43.760 C 102.333 42.879,102.167 42.370,101.720 41.881 C 101.575 41.722,100.787 41.667,98.673 41.667 L 95.822 41.667 95.870 43.542 M154.500 43.145 C 154.500 43.225,154.821 43.326,155.212 43.370 C 156.006 43.460,156.923 44.217,157.102 44.931 C 157.158 45.154,157.270 45.378,157.352 45.428 C 157.774 45.689,157.309 48.333,156.841 48.333 C 156.766 48.333,156.666 48.483,156.619 48.666 C 156.571 48.849,156.393 49.049,156.224 49.112 C 156.055 49.175,155.864 49.305,155.800 49.401 C 155.736 49.497,155.117 49.605,154.425 49.640 L 153.167 49.703 153.167 46.352 L 153.167 43.000 153.833 43.000 C 154.200 43.000,154.500 43.065,154.500 43.145 M100.167 43.583 C 100.167 43.785,99.907 43.833,98.833 43.833 C 97.759 43.833,97.500 43.785,97.500 43.583 C 97.500 43.382,97.759 43.333,98.833 43.333 C 99.907 43.333,100.167 43.382,100.167 43.583 M101.893 58.730 C 101.414 59.278,101.771 61.635,102.426 62.246 C 102.625 62.432,102.840 62.752,102.905 62.958 C 102.969 63.165,103.092 63.333,103.178 63.333 C 103.263 63.333,103.333 63.418,103.333 63.523 C 103.333 63.627,103.521 63.886,103.750 64.098 C 103.979 64.310,104.167 64.563,104.167 64.660 C 104.167 64.756,104.354 64.999,104.583 65.198 C 104.813 65.397,105.000 65.642,105.000 65.743 C 105.000 65.844,105.150 66.054,105.333 66.211 C 105.517 66.368,105.667 66.592,105.667 66.709 C 105.667 66.825,105.854 67.062,106.083 67.234 C 106.313 67.406,106.500 67.678,106.500 67.839 C 106.500 68.000,106.612 68.174,106.750 68.227 C 106.888 68.280,107.000 68.420,107.000 68.539 C 107.000 68.657,107.191 68.898,107.425 69.073 L 107.849 69.392 107.449 69.738 C 107.228 69.928,106.997 70.245,106.934 70.443 C 106.872 70.641,106.711 70.845,106.577 70.896 C 106.443 70.947,106.333 71.070,106.333 71.169 C 106.333 71.268,106.146 71.536,105.917 71.765 C 105.688 71.994,105.500 72.283,105.500 72.406 C 105.500 72.530,105.388 72.674,105.250 72.727 C 105.112 72.780,105.000 72.970,105.000 73.150 C 105.000 73.330,104.854 73.524,104.675 73.581 C 104.497 73.637,104.299 73.849,104.235 74.050 C 104.172 74.252,103.943 74.582,103.727 74.784 C 103.510 74.986,103.333 75.195,103.333 75.249 C 103.333 75.340,103.203 75.515,102.741 76.047 C 102.644 76.159,102.515 76.381,102.454 76.542 C 102.393 76.702,102.266 76.833,102.172 76.833 C 102.077 76.833,102.000 76.983,102.000 77.167 C 102.000 77.350,101.937 77.500,101.860 77.500 C 101.783 77.500,101.716 78.063,101.712 78.750 L 101.704 80.000 106.769 80.000 C 109.554 80.000,111.887 80.010,111.952 80.022 C 112.018 80.035,112.149 79.905,112.244 79.733 C 112.339 79.562,112.537 79.308,112.684 79.169 C 112.832 79.030,113.006 78.748,113.071 78.542 C 113.136 78.335,113.250 78.167,113.325 78.167 C 113.400 78.167,113.505 78.035,113.559 77.875 C 113.938 76.748,114.674 76.399,114.934 77.224 C 114.997 77.422,115.176 77.696,115.333 77.833 C 115.490 77.971,115.673 78.253,115.738 78.461 C 115.804 78.668,115.927 78.795,116.012 78.743 C 116.097 78.690,116.167 78.804,116.167 78.995 C 116.167 79.187,116.279 79.387,116.417 79.440 C 116.554 79.492,116.667 79.640,116.667 79.768 C 116.667 79.963,117.842 80.000,123.996 80.000 L 131.326 80.000 131.617 79.542 C 131.778 79.290,131.957 79.046,132.015 79.000 C 132.074 78.954,132.174 78.748,132.239 78.542 C 132.303 78.335,132.426 78.167,132.511 78.167 C 132.597 78.167,132.667 78.054,132.667 77.917 C 132.667 77.779,132.740 77.667,132.830 77.667 C 132.920 77.667,133.039 77.485,133.095 77.262 C 133.289 76.492,134.119 76.722,134.404 77.625 C 134.469 77.831,134.592 78.000,134.678 78.000 C 134.763 78.000,134.833 78.115,134.833 78.255 C 134.833 78.396,134.946 78.554,135.083 78.606 C 135.221 78.659,135.333 78.844,135.333 79.018 C 135.333 79.191,135.410 79.333,135.504 79.333 C 135.598 79.333,135.739 79.502,135.817 79.708 L 135.960 80.083 141.147 80.037 L 146.333 79.991 146.358 78.620 C 146.372 77.867,146.415 77.456,146.453 77.708 C 146.491 77.960,146.583 78.167,146.656 78.167 C 146.730 78.167,146.841 78.482,146.903 78.867 C 147.094 80.066,146.689 80.000,153.854 80.000 C 160.222 80.000,160.333 79.994,160.333 79.667 C 160.333 79.483,160.408 79.333,160.500 79.333 C 160.592 79.333,160.667 79.150,160.667 78.927 C 160.667 78.703,160.733 78.479,160.814 78.428 C 160.896 78.378,161.012 78.074,161.072 77.752 C 161.132 77.430,161.246 77.167,161.325 77.167 C 161.404 77.167,161.520 76.792,161.583 76.333 C 161.646 75.875,161.766 75.500,161.849 75.500 C 161.932 75.500,162.000 75.313,162.000 75.083 C 162.000 74.854,162.075 74.667,162.167 74.667 C 162.258 74.667,162.334 74.535,162.334 74.375 C 162.335 74.215,162.448 73.867,162.586 73.603 C 162.724 73.339,162.883 72.832,162.940 72.478 C 162.996 72.123,163.108 71.833,163.188 71.833 C 163.268 71.833,163.333 71.650,163.333 71.427 C 163.333 71.203,163.400 70.979,163.481 70.928 C 163.562 70.878,163.678 70.574,163.739 70.252 C 163.799 69.930,163.912 69.667,163.989 69.667 C 164.066 69.667,164.179 69.329,164.241 68.917 C 164.303 68.504,164.424 68.167,164.510 68.167 C 164.596 68.167,164.667 67.979,164.667 67.750 C 164.667 67.521,164.735 67.333,164.818 67.333 C 164.901 67.333,165.020 66.958,165.083 66.500 C 165.146 66.042,165.265 65.667,165.347 65.667 C 165.429 65.667,165.544 65.367,165.603 65.000 C 165.661 64.633,165.775 64.333,165.855 64.333 C 165.935 64.333,166.000 64.146,166.000 63.917 C 166.000 63.688,166.066 63.500,166.148 63.500 C 166.229 63.500,166.346 63.163,166.408 62.750 C 166.470 62.337,166.591 62.000,166.677 62.000 C 166.764 62.000,166.833 61.229,166.833 60.250 L 166.833 58.500 161.821 58.500 C 156.221 58.500,156.373 58.468,156.212 59.671 C 156.163 60.035,156.065 60.333,155.994 60.333 C 155.923 60.333,155.813 60.708,155.750 61.167 C 155.687 61.625,155.567 62.000,155.484 62.000 C 155.401 62.000,155.333 62.221,155.333 62.490 C 155.333 62.760,155.263 63.024,155.176 63.077 C 155.090 63.131,154.969 63.510,154.907 63.921 C 154.846 64.331,154.738 64.667,154.667 64.667 C 154.596 64.667,154.487 65.079,154.424 65.583 C 154.361 66.087,154.240 66.500,154.155 66.500 C 154.070 66.500,154.000 66.688,154.000 66.917 C 154.000 67.146,153.930 67.333,153.844 67.333 C 153.759 67.333,153.658 67.540,153.619 67.792 L 153.550 68.250 153.525 67.792 C 153.511 67.540,153.435 67.333,153.357 67.333 C 153.278 67.333,153.167 66.940,153.110 66.459 C 153.053 65.979,152.930 65.560,152.836 65.529 C 152.743 65.498,152.667 65.291,152.667 65.069 C 152.667 64.848,152.602 64.667,152.523 64.667 C 152.444 64.667,152.334 64.279,152.278 63.804 C 152.221 63.330,152.103 62.897,152.015 62.843 C 151.927 62.788,151.803 62.350,151.739 61.868 C 151.675 61.387,151.558 60.952,151.478 60.903 C 151.398 60.854,151.333 60.668,151.333 60.490 C 151.333 60.312,151.258 60.167,151.167 60.167 C 151.075 60.167,150.999 59.960,150.998 59.708 C 150.996 59.456,150.950 59.081,150.895 58.875 L 150.794 58.500 143.552 58.500 C 135.995 58.500,136.058 58.494,135.788 59.208 C 135.727 59.369,135.600 59.500,135.505 59.500 C 135.411 59.500,135.333 59.642,135.333 59.816 C 135.333 59.989,135.221 60.174,135.083 60.227 C 134.946 60.280,134.833 60.438,134.833 60.578 C 134.833 60.718,134.763 60.833,134.678 60.833 C 134.592 60.833,134.469 61.002,134.404 61.208 C 134.144 62.033,133.323 62.341,133.105 61.697 C 132.995 61.373,132.675 60.864,132.375 60.537 C 132.260 60.412,132.167 60.202,132.167 60.071 C 132.167 59.940,132.092 59.833,132.000 59.833 C 131.908 59.833,131.833 59.733,131.833 59.611 C 131.833 59.489,131.609 59.189,131.335 58.944 L 130.836 58.500 123.990 58.500 C 116.963 58.500,116.667 58.526,116.667 59.137 C 116.667 59.225,116.554 59.341,116.417 59.394 C 116.279 59.446,116.167 59.634,116.167 59.810 C 116.167 59.987,116.054 60.174,115.917 60.227 C 115.779 60.280,115.667 60.438,115.667 60.578 C 115.667 60.718,115.608 60.833,115.536 60.833 C 115.464 60.833,115.263 61.077,115.090 61.375 C 114.630 62.167,114.000 62.373,114.000 61.732 C 114.000 61.604,113.930 61.500,113.845 61.500 C 113.759 61.500,113.637 61.335,113.573 61.133 C 113.508 60.931,113.353 60.663,113.228 60.538 C 113.103 60.412,113.000 60.202,113.000 60.071 C 113.000 59.940,112.925 59.833,112.833 59.833 C 112.742 59.833,112.667 59.753,112.667 59.654 C 112.667 59.555,112.447 59.255,112.179 58.987 L 111.692 58.500 106.888 58.506 C 103.157 58.511,102.041 58.561,101.893 58.730 M110.500 60.399 C 110.500 60.527,110.612 60.674,110.750 60.727 C 110.888 60.780,111.000 60.933,111.000 61.069 C 111.000 61.204,111.139 61.412,111.309 61.532 C 111.480 61.652,111.672 61.919,111.737 62.125 C 111.802 62.331,111.918 62.500,111.993 62.500 C 112.069 62.500,112.178 62.688,112.235 62.917 C 112.293 63.146,112.413 63.333,112.503 63.333 C 112.593 63.333,112.667 63.446,112.667 63.583 C 112.667 63.721,112.740 63.833,112.830 63.833 C 112.920 63.833,113.041 64.021,113.098 64.250 C 113.156 64.479,113.266 64.667,113.342 64.667 C 113.419 64.667,113.580 64.873,113.701 65.125 C 114.060 65.877,115.333 65.655,115.333 64.840 C 115.333 64.745,115.407 64.667,115.497 64.667 C 115.587 64.667,115.707 64.479,115.765 64.250 C 115.822 64.021,115.931 63.833,116.007 63.833 C 116.082 63.833,116.198 63.665,116.263 63.458 C 116.328 63.252,116.520 62.985,116.691 62.866 C 116.861 62.746,117.000 62.537,117.000 62.402 C 117.000 62.267,117.106 62.116,117.235 62.066 C 117.364 62.016,117.516 61.794,117.571 61.571 C 117.627 61.349,117.747 61.167,117.837 61.167 C 117.926 61.167,118.000 61.093,118.000 61.002 C 118.000 60.911,118.129 60.686,118.287 60.502 C 118.666 60.060,129.667 59.966,129.667 60.405 C 129.667 60.537,129.817 60.692,130.000 60.750 C 130.184 60.808,130.333 61.002,130.333 61.183 C 130.333 61.363,130.439 61.551,130.568 61.601 C 130.698 61.650,130.849 61.873,130.905 62.095 C 130.961 62.318,131.080 62.500,131.170 62.500 C 131.260 62.500,131.333 62.612,131.333 62.750 C 131.333 62.887,131.403 63.000,131.489 63.000 C 131.574 63.000,131.697 63.165,131.761 63.367 C 131.825 63.569,131.980 63.837,132.105 63.962 C 132.231 64.088,132.333 64.293,132.333 64.417 C 132.333 64.542,132.479 64.690,132.656 64.747 C 132.834 64.803,133.002 65.014,133.031 65.216 C 133.131 65.920,134.500 65.617,134.500 64.891 C 134.500 64.768,134.570 64.667,134.655 64.667 C 134.741 64.667,134.864 64.498,134.929 64.292 C 134.994 64.085,135.168 63.803,135.316 63.664 C 135.628 63.370,135.934 62.904,136.163 62.375 C 136.252 62.169,136.393 62.000,136.476 62.000 C 136.560 62.000,136.672 61.869,136.726 61.708 C 136.831 61.396,137.101 60.962,137.495 60.472 C 137.895 59.974,149.167 60.002,149.167 60.500 C 149.167 60.683,149.231 60.833,149.310 60.833 C 149.389 60.833,149.500 61.221,149.556 61.696 C 149.612 62.170,149.735 62.635,149.829 62.729 C 149.923 62.823,150.000 63.035,150.000 63.200 C 150.000 63.365,150.065 63.500,150.143 63.500 C 150.222 63.500,150.332 63.883,150.388 64.351 C 150.443 64.819,150.569 65.299,150.667 65.417 C 150.765 65.535,150.890 66.014,150.946 66.482 C 151.001 66.950,151.111 67.333,151.190 67.333 C 151.269 67.333,151.333 67.521,151.333 67.750 C 151.333 67.979,151.400 68.167,151.481 68.167 C 151.562 68.167,151.680 68.579,151.743 69.083 C 151.806 69.587,151.924 70.000,152.006 70.000 C 152.088 70.000,152.205 70.377,152.266 70.837 C 152.327 71.297,152.442 71.714,152.522 71.764 C 152.602 71.813,152.667 72.036,152.667 72.260 C 152.667 72.484,152.735 72.667,152.819 72.667 C 152.902 72.667,153.021 72.962,153.082 73.323 C 153.208 74.071,153.889 74.678,154.225 74.342 C 154.366 74.201,154.353 74.115,154.176 74.006 C 154.000 73.897,153.985 73.801,154.120 73.638 C 154.220 73.516,154.355 73.060,154.420 72.625 C 154.485 72.190,154.599 71.833,154.674 71.833 C 154.748 71.833,154.861 71.421,154.924 70.917 C 154.987 70.412,155.105 70.000,155.186 70.000 C 155.267 70.000,155.333 69.817,155.333 69.593 C 155.333 69.369,155.406 69.141,155.495 69.086 C 155.584 69.031,155.706 68.614,155.767 68.160 C 155.827 67.705,155.935 67.333,156.006 67.333 C 156.077 67.333,156.187 66.958,156.250 66.500 C 156.313 66.042,156.433 65.667,156.516 65.667 C 156.599 65.667,156.667 65.442,156.667 65.167 C 156.667 64.892,156.735 64.667,156.818 64.667 C 156.901 64.667,157.020 64.292,157.083 63.833 C 157.146 63.375,157.257 63.000,157.330 63.000 C 157.402 63.000,157.513 62.587,157.576 62.083 C 157.639 61.579,157.760 61.167,157.845 61.167 C 157.930 61.167,158.000 60.942,158.000 60.667 L 158.000 60.167 161.554 60.167 L 165.109 60.167 165.036 60.667 C 164.995 60.942,164.896 61.167,164.814 61.167 C 164.733 61.167,164.667 61.354,164.667 61.583 C 164.667 61.813,164.593 62.000,164.502 62.000 C 164.411 62.000,164.289 62.300,164.231 62.667 C 164.172 63.033,164.067 63.333,163.998 63.333 C 163.928 63.333,163.821 63.671,163.759 64.083 C 163.697 64.496,163.576 64.833,163.490 64.833 C 163.404 64.833,163.331 65.002,163.328 65.208 C 163.325 65.415,163.213 65.729,163.078 65.907 C 162.943 66.085,162.833 66.404,162.833 66.615 C 162.833 66.827,162.765 67.000,162.682 67.000 C 162.599 67.000,162.480 67.375,162.417 67.833 C 162.354 68.292,162.234 68.667,162.151 68.667 C 162.068 68.667,162.000 68.854,162.000 69.083 C 162.000 69.313,161.926 69.500,161.835 69.500 C 161.745 69.500,161.623 69.800,161.564 70.167 C 161.505 70.533,161.397 70.833,161.322 70.833 C 161.248 70.833,161.136 71.171,161.075 71.583 C 161.013 71.996,160.896 72.333,160.814 72.333 C 160.733 72.333,160.667 72.521,160.667 72.750 C 160.667 72.979,160.593 73.167,160.502 73.167 C 160.411 73.167,160.289 73.467,160.231 73.833 C 160.172 74.200,160.066 74.500,159.994 74.500 C 159.923 74.500,159.813 74.875,159.750 75.333 C 159.687 75.792,159.567 76.167,159.484 76.167 C 159.401 76.167,159.333 76.312,159.333 76.490 C 159.333 76.668,159.267 76.855,159.185 76.905 C 159.104 76.956,158.987 77.204,158.926 77.457 C 158.865 77.710,158.726 78.123,158.617 78.375 L 158.419 78.833 153.751 78.832 L 149.083 78.831 148.875 78.382 C 148.760 78.135,148.667 77.836,148.667 77.717 C 148.667 77.598,148.599 77.500,148.516 77.500 C 148.433 77.500,148.313 77.125,148.250 76.667 C 148.187 76.208,148.074 75.833,148.000 75.833 C 147.926 75.833,147.813 75.458,147.750 75.000 C 147.687 74.542,147.567 74.167,147.484 74.167 C 147.401 74.167,147.333 74.017,147.333 73.833 C 147.333 73.650,147.265 73.500,147.181 73.500 C 147.098 73.500,146.979 73.200,146.917 72.833 C 146.855 72.467,146.744 72.167,146.671 72.167 C 146.598 72.167,146.487 71.831,146.426 71.421 C 146.364 71.010,146.243 70.631,146.157 70.577 C 146.071 70.524,146.000 70.297,146.000 70.073 C 146.000 69.850,145.935 69.667,145.855 69.667 C 145.775 69.667,145.661 69.367,145.603 69.000 C 145.544 68.633,145.430 68.333,145.350 68.333 C 145.270 68.333,145.154 67.996,145.092 67.583 C 145.030 67.171,144.909 66.833,144.823 66.833 C 144.737 66.833,144.667 66.646,144.667 66.417 C 144.667 66.188,144.599 66.000,144.516 66.000 C 144.433 66.000,144.313 65.625,144.250 65.167 C 144.187 64.708,144.071 64.333,143.992 64.333 C 143.913 64.333,143.799 64.070,143.739 63.748 C 143.678 63.426,143.562 63.122,143.481 63.072 C 143.400 63.021,143.333 62.797,143.333 62.573 C 143.333 62.323,143.237 62.167,143.083 62.167 C 142.946 62.167,142.833 62.283,142.833 62.425 C 142.833 62.567,142.665 62.848,142.458 63.051 C 142.083 63.419,141.766 63.866,141.550 64.330 C 141.487 64.465,141.262 64.736,141.051 64.932 C 140.840 65.128,140.667 65.360,140.667 65.448 C 140.667 65.536,140.479 65.785,140.250 66.000 C 140.021 66.215,139.833 66.480,139.833 66.589 C 139.833 66.698,139.650 66.924,139.427 67.092 C 139.203 67.260,138.977 67.570,138.924 67.782 C 138.870 67.994,138.753 68.167,138.663 68.167 C 138.574 68.167,138.500 68.282,138.500 68.422 C 138.500 68.562,138.387 68.720,138.250 68.773 C 138.098 68.831,138.000 69.084,138.000 69.417 C 138.000 69.750,138.098 70.002,138.250 70.060 C 138.387 70.113,138.500 70.258,138.500 70.382 C 138.500 70.507,138.688 70.785,138.917 71.000 C 139.146 71.215,139.333 71.491,139.333 71.612 C 139.333 71.734,139.403 71.833,139.489 71.833 C 139.574 71.833,139.697 71.999,139.761 72.202 C 139.826 72.405,140.056 72.710,140.272 72.881 C 140.489 73.051,140.667 73.271,140.667 73.368 C 140.667 73.465,140.854 73.719,141.083 73.931 C 141.313 74.144,141.500 74.393,141.500 74.484 C 141.500 74.576,141.672 74.824,141.883 75.035 C 142.094 75.245,142.316 75.549,142.378 75.709 C 142.439 75.869,142.567 76.000,142.661 76.000 C 142.756 76.000,142.833 76.139,142.833 76.310 C 142.833 76.480,143.021 76.761,143.250 76.933 C 143.479 77.105,143.667 77.341,143.667 77.458 C 143.667 77.574,143.817 77.798,144.000 77.955 C 144.183 78.112,144.333 78.330,144.333 78.440 C 144.333 78.549,144.427 78.677,144.542 78.723 C 144.656 78.769,143.187 78.813,141.277 78.820 C 137.586 78.834,137.195 78.744,137.172 77.870 C 137.169 77.752,137.054 77.613,136.917 77.560 C 136.779 77.508,136.667 77.330,136.667 77.167 C 136.667 77.003,136.554 76.826,136.417 76.773 C 136.279 76.720,136.167 76.562,136.167 76.422 C 136.167 76.282,136.097 76.167,136.011 76.167 C 135.926 76.167,135.803 75.998,135.737 75.792 C 135.672 75.585,135.490 75.304,135.333 75.167 C 135.176 75.029,134.994 74.748,134.929 74.542 C 134.864 74.335,134.741 74.167,134.655 74.167 C 134.570 74.167,134.500 74.071,134.500 73.954 C 134.500 73.679,133.902 73.167,133.581 73.167 C 133.302 73.167,132.667 73.745,132.667 74.000 C 132.667 74.092,132.593 74.167,132.503 74.167 C 132.413 74.167,132.293 74.354,132.235 74.583 C 132.178 74.813,132.072 75.000,132.000 75.000 C 131.928 75.000,131.822 75.188,131.765 75.417 C 131.707 75.646,131.587 75.833,131.497 75.833 C 131.407 75.833,131.333 75.946,131.333 76.083 C 131.333 76.221,131.260 76.333,131.170 76.333 C 131.080 76.333,130.959 76.521,130.902 76.750 C 130.844 76.979,130.735 77.167,130.660 77.167 C 130.584 77.167,130.469 77.335,130.404 77.542 C 130.339 77.748,130.146 78.015,129.976 78.134 C 129.806 78.254,129.667 78.460,129.667 78.593 C 129.667 78.798,128.846 78.833,124.152 78.833 L 118.637 78.833 118.324 78.458 C 118.152 78.252,118.009 77.990,118.006 77.875 C 118.002 77.760,117.923 77.667,117.829 77.667 C 117.735 77.667,117.585 77.498,117.496 77.292 C 117.268 76.763,116.961 76.297,116.649 76.002 C 116.502 75.864,116.328 75.581,116.263 75.375 C 116.197 75.169,116.082 75.000,116.007 75.000 C 115.931 75.000,115.822 74.813,115.765 74.583 C 115.707 74.354,115.587 74.167,115.497 74.167 C 115.407 74.167,115.333 74.092,115.333 74.000 C 115.333 73.745,114.698 73.167,114.419 73.167 C 114.098 73.167,113.500 73.679,113.500 73.954 C 113.500 74.071,113.426 74.167,113.337 74.167 C 113.247 74.167,113.126 74.354,113.068 74.583 C 113.011 74.813,112.897 75.000,112.815 75.000 C 112.734 75.000,112.667 75.112,112.667 75.250 C 112.667 75.387,112.593 75.500,112.503 75.500 C 112.413 75.500,112.293 75.688,112.235 75.917 C 112.178 76.146,112.069 76.333,111.993 76.333 C 111.918 76.333,111.803 76.502,111.737 76.708 C 111.672 76.915,111.498 77.197,111.351 77.336 C 111.023 77.645,110.690 78.152,110.559 78.542 C 110.470 78.807,110.143 78.833,106.889 78.833 L 103.316 78.833 103.700 78.457 C 104.082 78.082,104.400 77.637,104.617 77.170 C 104.680 77.035,104.904 76.764,105.116 76.568 C 105.327 76.372,105.500 76.126,105.500 76.021 C 105.500 75.917,105.688 75.668,105.917 75.469 C 106.146 75.270,106.333 75.024,106.333 74.924 C 106.333 74.823,106.483 74.612,106.667 74.455 C 106.850 74.298,107.000 74.073,107.000 73.955 C 107.000 73.837,107.150 73.632,107.333 73.500 C 107.517 73.368,107.667 73.180,107.667 73.084 C 107.667 72.987,107.817 72.779,108.000 72.622 C 108.183 72.465,108.333 72.241,108.333 72.125 C 108.333 72.008,108.521 71.772,108.750 71.600 C 108.979 71.427,109.167 71.203,109.167 71.100 C 109.167 70.997,109.335 70.723,109.542 70.489 C 110.184 69.764,110.306 69.456,110.101 69.085 C 110.000 68.901,109.748 68.586,109.542 68.384 C 109.335 68.181,109.167 67.921,109.167 67.805 C 109.167 67.689,108.993 67.442,108.780 67.255 C 108.568 67.069,108.340 66.804,108.274 66.667 C 107.986 66.068,107.698 65.649,107.384 65.376 C 107.199 65.215,106.997 64.922,106.934 64.724 C 106.872 64.526,106.711 64.322,106.577 64.271 C 106.443 64.219,106.333 64.076,106.333 63.952 C 106.333 63.828,106.146 63.564,105.917 63.364 C 105.688 63.165,105.500 62.924,105.500 62.827 C 105.500 62.642,105.358 62.448,104.625 61.629 C 104.373 61.348,104.167 61.016,104.167 60.892 C 104.167 60.768,104.100 60.667,104.018 60.667 C 103.936 60.667,103.826 60.554,103.773 60.417 C 103.690 60.199,104.125 60.167,107.089 60.167 C 109.893 60.167,110.500 60.208,110.500 60.399 M123.667 62.434 C 123.667 62.582,123.479 62.850,123.250 63.030 C 123.021 63.210,122.833 63.465,122.833 63.595 C 122.833 63.726,122.763 63.833,122.678 63.833 C 122.592 63.833,122.470 63.999,122.405 64.202 C 122.341 64.405,122.111 64.710,121.894 64.881 C 121.677 65.051,121.500 65.271,121.500 65.368 C 121.500 65.465,121.313 65.719,121.083 65.931 C 120.854 66.144,120.667 66.400,120.667 66.500 C 120.667 66.600,120.490 66.848,120.273 67.050 C 120.057 67.251,119.827 67.585,119.762 67.792 C 119.697 67.998,119.574 68.167,119.489 68.167 C 119.403 68.167,119.333 68.271,119.333 68.399 C 119.333 68.527,119.221 68.674,119.083 68.727 C 118.926 68.787,118.833 69.043,118.833 69.417 C 118.833 69.791,118.926 70.046,119.083 70.106 C 119.221 70.159,119.333 70.289,119.333 70.395 C 119.333 70.500,119.502 70.777,119.708 71.011 C 120.109 71.464,120.431 71.931,120.617 72.330 C 120.680 72.465,120.904 72.736,121.116 72.932 C 121.327 73.128,121.500 73.368,121.500 73.465 C 121.500 73.563,121.688 73.790,121.917 73.970 C 122.146 74.150,122.333 74.393,122.333 74.510 C 122.333 74.627,122.445 74.841,122.582 74.986 C 123.127 75.563,123.667 76.308,123.667 76.482 C 123.667 76.584,123.785 76.667,123.929 76.667 C 124.222 76.667,124.667 76.279,124.667 76.024 C 124.667 75.932,124.854 75.710,125.083 75.530 C 125.313 75.350,125.500 75.122,125.500 75.025 C 125.500 74.928,125.669 74.672,125.875 74.456 C 126.310 74.001,126.602 73.569,126.830 73.042 C 126.919 72.835,127.052 72.667,127.127 72.667 C 127.201 72.667,127.403 72.423,127.576 72.125 C 127.749 71.827,127.990 71.523,128.112 71.450 C 128.234 71.377,128.333 71.221,128.333 71.104 C 128.333 70.987,128.521 70.715,128.750 70.500 C 128.979 70.285,129.167 70.009,129.167 69.888 C 129.167 69.766,129.242 69.667,129.333 69.667 C 129.425 69.667,129.500 69.554,129.500 69.417 C 129.500 69.279,129.425 69.167,129.333 69.167 C 129.242 69.167,129.167 69.060,129.167 68.929 C 129.167 68.798,128.979 68.543,128.750 68.363 C 128.521 68.183,128.333 67.919,128.333 67.776 C 128.333 67.633,128.234 67.457,128.112 67.383 C 127.990 67.310,127.749 67.006,127.576 66.708 C 127.403 66.410,127.203 66.167,127.131 66.167 C 127.059 66.167,127.000 66.071,127.000 65.954 C 127.000 65.837,126.850 65.612,126.667 65.455 C 126.483 65.298,126.333 65.074,126.333 64.958 C 126.333 64.841,126.146 64.605,125.917 64.433 C 125.688 64.261,125.500 64.010,125.500 63.876 C 125.500 63.741,125.313 63.484,125.083 63.304 C 124.854 63.123,124.667 62.901,124.667 62.809 C 124.667 62.554,124.222 62.167,123.929 62.167 C 123.785 62.167,123.667 62.287,123.667 62.434 M124.475 66.143 C 124.743 66.404,125.011 66.772,125.071 66.961 C 125.131 67.149,125.289 67.345,125.423 67.396 C 125.557 67.447,125.667 67.637,125.667 67.817 C 125.667 67.998,125.816 68.192,126.000 68.250 C 126.183 68.308,126.333 68.464,126.333 68.596 C 126.333 68.728,126.481 68.963,126.662 69.118 C 126.990 69.399,126.990 69.401,126.662 69.706 C 126.481 69.875,126.333 70.105,126.333 70.217 C 126.333 70.329,126.146 70.562,125.917 70.734 C 125.688 70.906,125.500 71.117,125.500 71.202 C 125.500 71.287,125.406 71.462,125.292 71.589 C 124.850 72.082,124.667 72.323,124.667 72.410 C 124.667 72.459,124.508 72.659,124.314 72.853 C 123.957 73.210,123.676 73.079,123.669 72.553 C 123.668 72.444,123.517 72.308,123.334 72.250 C 123.151 72.192,122.955 71.962,122.899 71.739 C 122.843 71.516,122.747 71.333,122.686 71.333 C 122.626 71.333,122.437 71.075,122.267 70.760 C 122.097 70.444,121.855 70.147,121.729 70.098 C 121.603 70.050,121.500 69.896,121.500 69.755 C 121.500 69.615,121.406 69.494,121.292 69.487 C 121.125 69.476,121.125 69.457,121.292 69.390 C 121.406 69.343,121.500 69.197,121.500 69.064 C 121.500 68.931,121.612 68.780,121.750 68.727 C 121.888 68.674,122.000 68.561,122.000 68.475 C 122.000 68.328,122.138 68.132,122.625 67.589 C 122.740 67.462,122.833 67.282,122.833 67.191 C 122.833 67.099,123.011 66.885,123.228 66.714 C 123.444 66.544,123.674 66.238,123.739 66.035 C 123.886 65.570,123.891 65.571,124.475 66.143 M142.949 67.748 C 143.001 68.070,143.109 68.333,143.188 68.333 C 143.268 68.333,143.333 68.521,143.333 68.750 C 143.333 68.979,143.400 69.167,143.481 69.167 C 143.562 69.167,143.679 69.502,143.741 69.913 C 143.802 70.323,143.923 70.703,144.010 70.756 C 144.096 70.809,144.167 70.980,144.168 71.135 C 144.168 71.290,144.281 71.631,144.418 71.894 C 144.555 72.157,144.667 72.475,144.667 72.602 C 144.667 72.729,144.735 72.833,144.818 72.833 C 144.901 72.833,145.020 73.208,145.083 73.667 C 145.146 74.125,145.257 74.500,145.330 74.500 C 145.403 74.500,145.513 74.836,145.574 75.246 C 145.636 75.656,145.757 76.036,145.843 76.089 C 145.929 76.143,146.000 76.326,146.000 76.496 C 146.000 76.666,146.094 76.839,146.208 76.880 C 146.323 76.921,146.364 77.011,146.300 77.080 C 146.175 77.214,145.667 76.787,145.667 76.549 C 145.667 76.471,145.517 76.279,145.333 76.122 C 145.150 75.965,145.000 75.740,145.000 75.622 C 145.000 75.504,144.850 75.299,144.667 75.167 C 144.483 75.035,144.333 74.830,144.333 74.712 C 144.333 74.593,144.183 74.368,144.000 74.211 C 143.817 74.054,143.667 73.864,143.667 73.789 C 143.667 73.713,143.479 73.464,143.250 73.235 C 143.021 73.006,142.833 72.743,142.833 72.651 C 142.833 72.559,142.646 72.310,142.417 72.098 C 142.188 71.886,142.000 71.627,142.000 71.523 C 142.000 71.418,141.930 71.333,141.845 71.333 C 141.759 71.333,141.636 71.165,141.571 70.958 C 141.507 70.752,141.267 70.409,141.039 70.197 C 140.566 69.756,140.491 69.028,140.896 68.802 C 141.045 68.718,141.167 68.573,141.167 68.480 C 141.167 68.386,141.260 68.205,141.375 68.077 C 141.823 67.577,142.000 67.343,142.000 67.250 C 142.000 66.436,142.804 66.858,142.949 67.748 " stroke="none" fill="#ffe521" fill-rule="evenodd"></path><path id="path1" d="M73.458 35.625 C 78.890 35.649,87.777 35.649,93.208 35.625 C 98.640 35.601,94.196 35.581,83.333 35.581 C 72.471 35.581,68.027 35.601,73.458 35.625 M114.387 35.625 C 118.130 35.650,124.205 35.650,127.887 35.625 C 131.570 35.600,128.508 35.579,121.083 35.579 C 113.658 35.579,110.645 35.600,114.387 35.625 M142.470 35.625 C 145.525 35.650,150.475 35.650,153.470 35.625 C 156.466 35.599,153.967 35.579,147.917 35.579 C 141.867 35.579,139.416 35.599,142.470 35.625 M173.208 35.625 C 174.835 35.652,177.498 35.652,179.125 35.625 C 180.752 35.597,179.421 35.575,176.167 35.575 C 172.912 35.575,171.581 35.597,173.208 35.625 M185.802 35.625 C 187.206 35.653,189.456 35.653,190.802 35.625 C 192.148 35.597,191.000 35.574,188.250 35.574 C 185.500 35.574,184.398 35.597,185.802 35.625 M200.802 35.625 C 202.206 35.653,204.456 35.653,205.802 35.625 C 207.148 35.597,206.000 35.574,203.250 35.574 C 200.500 35.574,199.398 35.597,200.802 35.625 M175.667 41.431 C 175.667 41.576,175.756 41.665,175.865 41.628 C 176.174 41.525,176.225 41.167,175.931 41.167 C 175.785 41.167,175.667 41.285,175.667 41.431 M153.000 74.236 C 153.000 74.381,153.119 74.500,153.264 74.500 C 153.558 74.500,153.507 74.141,153.198 74.038 C 153.089 74.002,153.000 74.091,153.000 74.236 M104.292 80.125 C 105.690 80.153,107.977 80.153,109.375 80.125 C 110.773 80.097,109.629 80.074,106.833 80.074 C 104.037 80.074,102.894 80.097,104.292 80.125 M120.292 80.125 C 122.331 80.151,125.669 80.151,127.708 80.125 C 129.748 80.098,128.079 80.077,124.000 80.077 C 119.921 80.077,118.252 80.098,120.292 80.125 M138.625 80.125 C 140.023 80.153,142.310 80.153,143.708 80.125 C 145.106 80.097,143.962 80.074,141.167 80.074 C 138.371 80.074,137.227 80.097,138.625 80.125 M150.542 80.125 C 152.352 80.152,155.315 80.152,157.125 80.125 C 158.935 80.098,157.454 80.076,153.833 80.076 C 150.212 80.076,148.731 80.098,150.542 80.125 " stroke="none" fill="#ffff20" fill-rule="evenodd"></path></g></svg>